<svg width="33" height="33" viewBox="0 0 33 33" fill="none" xmlns="http://www.w3.org/2000/svg">
<g clip-path="url(#clip0_1_3)">
<path d="M13.6684 0.970032C12.7539 0.970032 11.8767 1.3369 11.2299 1.9903L1.47579 11.8425C0.82904 12.4956 0.46582 13.3816 0.46582 14.3053V23.8272H7.32295V10.1651C7.32295 8.8739 8.35927 7.82717 9.63765 7.82717H32.4657V0.970032H13.6684Z" fill="#8c8c8c"/>
<path d="M25.6086 23.7949C25.6086 25.0746 24.6011 26.1129 23.3229 26.1129H0.46582V32.9701H19.263C20.1777 32.9701 21.0547 32.6063 21.7015 31.9583L31.4556 22.1885C32.1024 21.5412 32.4657 20.6623 32.4657 19.7463V10.1129H25.6086V23.7949Z" fill="#8c8c8c"/>
<g clip-path="url(#clip1_1_3)">
<path d="M75.9333 -831.733C41.9333 -824.267 -0.60004 -802.133 -37.6667 -772.533C-56.8667 -757.2 -88.8667 -724.8 -105.8 -703.6C-205.933 -578.133 -266.867 -389.733 -285.533 -146.533C-290.733 -80.1332 -291.533 -55.4665 -291.533 26.8001C-291.533 103.333 -290.867 125.467 -286.867 182.133C-264.733 495.867 -165.533 730.667 -11.6667 833.467C20.7333 855.2 61.2666 871.334 83.4 871.467H89V632.134V392.8H83.9333C81.1333 392.8 75.4 391.867 71 390.8C35.1333 381.333 17 344.667 3.79996 254.8C-2.33337 213.067 -9.13337 143.6 -12.6 87.4668C-14.6 53.2001 -14.6 -63.4665 -12.6 -95.1999C-7.53337 -170 -1.13337 -223.2 7.13329 -255.467C20.6 -309.067 44.0666 -337.733 78.3333 -342.4L89 -343.733V-588.8C89 -821.333 88.8666 -833.867 86.7333 -833.733C85.4 -833.6 80.6 -832.8 75.9333 -831.733Z" fill="#8c8c8c"/>
<g clip-path="url(#clip2_1_3)">
<path d="M139.611 183.96C133.194 185.189 128.142 188.739 118.448 199.047L110.734 207.239C92.575 226.49 77.2832 237.345 54.209 243.284C27.8581 250.11 0.210131 243.693 -22.2496 226.217C-37.6779 214.134 -94.9536 156.858 -122.192 124.363L-141.17 101.972L-141.853 101.084C-179.809 56.3696 -192.507 40.3269 -197.695 28.0389C-212.372 -6.36746 -212.714 -39.3403 -197.695 -67.0565C-189.298 -82.7579 -176.396 -93.544 -157.213 -104.603C-154.892 -105.969 -138.235 -115.048 -134.958 -117.096C-132.705 -118.461 -131.954 -119.144 -132.705 -117.915C-120.007 -139.897 -127.244 -206.73 -152.502 -267.487C-181.447 -337.393 -238.86 -389.89 -260.159 -384.565C-297.091 -375.212 -350.476 -343.946 -375.803 -314.728C-434.375 -247.144 -372.185 23.6699 -217.902 207.717C-80.1397 371.898 145.686 476.961 279.079 446.445C309.731 439.414 363.457 366.027 367.69 320.903C369.26 303.836 319.698 257.551 259.419 224.783C209.584 197.75 159.271 180.41 139.542 183.96H139.611ZM283.858 179.796C362.501 222.531 423.054 278.987 418.617 325.75C412.473 391.286 344.615 483.992 290.48 496.348C135.856 531.779 -108.197 418.183 -257.087 240.553C-425.637 39.7125 -493.767 -256.974 -414.51 -348.179C-382.083 -385.725 -319.414 -422.385 -272.583 -434.195C-219.267 -447.507 -142.672 -377.533 -105.194 -287.012C-74.4736 -212.942 -65.5989 -131.637 -88.3317 -92.2469C-93.0728 -84.5864 -99.671 -78.2465 -107.515 -73.8149C-112.498 -70.6064 -130.725 -60.776 -131.681 -60.1616C-143.286 -53.4715 -149.772 -48.0784 -152.571 -42.7536C-159.67 -29.6464 -159.534 -12.9211 -150.523 8.10507C-148.475 12.952 -133.251 32.1349 -102.804 68.1115L-102.122 68.9307L-83.0069 91.5269C-57.8848 121.496 -3.13492 176.314 9.28961 186.008C13.6565 189.724 18.8341 192.364 24.4066 193.716C29.979 195.067 35.7908 195.093 41.3749 193.79C53.3216 190.718 61.3771 184.984 73.4603 172.15L81.1744 163.958C97.6949 146.482 110.529 137.334 130.326 133.716C165.757 127.162 223.715 147.233 283.858 179.864V179.796ZM293.211 -11.4192C292.876 -4.62965 289.857 1.74875 284.82 6.31284C279.782 10.8769 273.137 13.2528 266.348 12.9179C259.558 12.5829 253.18 9.56454 248.616 4.52676C244.052 -0.511014 241.676 -7.15553 242.011 -13.9451C247.062 -115.253 169.102 -203.044 68.6133 -209.461C65.1774 -209.56 61.7966 -210.351 58.6728 -211.786C55.549 -213.22 52.7461 -215.269 50.4312 -217.81C48.1162 -220.351 46.3368 -223.332 45.1989 -226.576C44.0611 -229.819 43.5881 -233.259 43.8082 -236.689C44.0284 -240.12 44.937 -243.471 46.4802 -246.542C48.0233 -249.614 50.1692 -252.343 52.7899 -254.568C55.4106 -256.792 58.4525 -258.466 61.734 -259.489C65.0156 -260.513 68.4696 -260.865 71.8901 -260.524C200.368 -252.332 299.559 -140.648 293.211 -11.4192Z" fill="#8c8c8c"/>
<g clip-path="url(#clip3_1_3)">
<path d="M139.611 188.96C133.194 190.189 128.142 193.739 118.448 204.047L110.734 212.239C92.575 231.49 77.2832 242.345 54.209 248.284C27.8581 255.11 0.210131 248.693 -22.2496 231.217C-37.6779 219.134 -94.9536 161.858 -122.192 129.363L-141.17 106.972L-141.853 106.084C-179.809 61.3696 -192.507 45.3269 -197.695 33.0389C-212.372 -1.36746 -212.714 -34.3403 -197.695 -62.0565C-189.298 -77.7579 -176.396 -88.544 -157.213 -99.6032C-154.892 -100.969 -138.235 -110.048 -134.958 -112.096C-132.705 -113.461 -131.954 -114.144 -132.705 -112.915C-120.007 -134.897 -127.244 -201.73 -152.502 -262.487C-181.447 -332.393 -238.86 -384.89 -260.159 -379.565C-297.091 -370.212 -350.476 -338.946 -375.803 -309.728C-434.375 -242.144 -372.185 28.6699 -217.902 212.717C-80.1397 376.898 145.686 481.961 279.079 451.445C309.731 444.414 363.457 371.027 367.69 325.903C369.26 308.836 319.698 262.551 259.419 229.783C209.584 202.75 159.271 185.41 139.542 188.96H139.611ZM283.858 184.796C362.501 227.531 423.054 283.987 418.617 330.75C412.473 396.286 344.615 488.992 290.48 501.348C135.856 536.779 -108.197 423.183 -257.087 245.553C-425.637 44.7125 -493.767 -251.974 -414.51 -343.179C-382.083 -380.725 -319.414 -417.385 -272.583 -429.195C-219.267 -442.507 -142.672 -372.533 -105.194 -282.012C-74.4736 -207.942 -65.5989 -126.637 -88.3317 -87.2469C-93.0728 -79.5864 -99.671 -73.2465 -107.515 -68.8149C-112.498 -65.6064 -130.725 -55.776 -131.681 -55.1616C-143.286 -48.4715 -149.772 -43.0784 -152.571 -37.7536C-159.67 -24.6464 -159.534 -7.92106 -150.523 13.1051C-148.475 17.952 -133.251 37.1349 -102.804 73.1115L-102.122 73.9307L-83.0069 96.5269C-57.8848 126.496 -3.13492 181.314 9.28961 191.008C13.6565 194.724 18.8341 197.364 24.4066 198.716C29.979 200.067 35.7908 200.093 41.3749 198.79C53.3216 195.718 61.3771 189.984 73.4603 177.15L81.1744 168.958C97.6949 151.482 110.529 142.334 130.326 138.716C165.757 132.162 223.715 152.233 283.858 184.864V184.796ZM293.211 -6.41919C292.876 0.370353 289.857 6.74875 284.82 11.3128C279.782 15.8769 273.137 18.2528 266.348 17.9179C259.558 17.5829 253.18 14.5645 248.616 9.52676C244.052 4.48899 241.676 -2.15553 242.011 -8.94507C247.062 -110.253 169.102 -198.044 68.6133 -204.461C65.1774 -204.56 61.7966 -205.351 58.6728 -206.786C55.549 -208.22 52.7461 -210.269 50.4312 -212.81C48.1162 -215.351 46.3368 -218.332 45.1989 -221.576C44.0611 -224.819 43.5881 -228.259 43.8082 -231.689C44.0284 -235.12 44.937 -238.471 46.4802 -241.542C48.0233 -244.614 50.1692 -247.343 52.7899 -249.568C55.4106 -251.792 58.4525 -253.466 61.734 -254.489C65.0156 -255.513 68.4696 -255.865 71.8901 -255.524C200.368 -247.332 299.559 -135.648 293.211 -6.41919Z" fill="#8c8c8c"/>
<path d="M139.611 191.96C133.194 193.189 128.142 196.739 118.448 207.047L110.734 215.239C92.575 234.49 77.2832 245.345 54.209 251.284C27.8581 258.11 0.210131 251.693 -22.2496 234.217C-37.6779 222.134 -94.9536 164.858 -122.192 132.363L-141.17 109.972L-141.853 109.084C-179.809 64.3696 -192.507 48.3269 -197.695 36.0389C-212.372 1.63254 -212.714 -31.3403 -197.695 -59.0565C-189.298 -74.7579 -176.396 -85.544 -157.213 -96.6032C-154.892 -97.9685 -138.235 -107.048 -134.958 -109.096C-132.705 -110.461 -131.954 -111.144 -132.705 -109.915C-120.007 -131.897 -127.244 -198.73 -152.502 -259.487C-181.447 -329.393 -238.86 -381.89 -260.159 -376.565C-297.091 -367.212 -350.476 -335.946 -375.803 -306.728C-434.375 -239.144 -372.185 31.6699 -217.902 215.717C-80.1397 379.898 145.686 484.961 279.079 454.445C309.731 447.414 363.457 374.027 367.69 328.903C369.26 311.836 319.698 265.551 259.419 232.783C209.584 205.75 159.271 188.41 139.542 191.96H139.611ZM283.858 187.796C362.501 230.531 423.054 286.987 418.617 333.75C412.473 399.286 344.615 491.992 290.48 504.348C135.856 539.779 -108.197 426.183 -257.087 248.553C-425.637 47.7125 -493.767 -248.974 -414.51 -340.179C-382.083 -377.725 -319.414 -414.385 -272.583 -426.195C-219.267 -439.507 -142.672 -369.533 -105.194 -279.012C-74.4736 -204.942 -65.5989 -123.637 -88.3317 -84.2469C-93.0728 -76.5864 -99.671 -70.2465 -107.515 -65.8149C-112.498 -62.6064 -130.725 -52.776 -131.681 -52.1616C-143.286 -45.4715 -149.772 -40.0784 -152.571 -34.7536C-159.67 -21.6464 -159.534 -4.92106 -150.523 16.1051C-148.475 20.952 -133.251 40.1349 -102.804 76.1115L-102.122 76.9307L-83.0069 99.5269C-57.8848 129.496 -3.13492 184.314 9.28961 194.008C13.6565 197.724 18.8341 200.364 24.4066 201.716C29.979 203.067 35.7908 203.093 41.3749 201.79C53.3216 198.718 61.3771 192.984 73.4603 180.15L81.1744 171.958C97.6949 154.482 110.529 145.334 130.326 141.716C165.757 135.162 223.715 155.233 283.858 187.864V187.796ZM293.211 -3.41919C292.876 3.37035 289.857 9.74875 284.82 14.3128C279.782 18.8769 273.137 21.2528 266.348 20.9179C259.558 20.5829 253.18 17.5645 248.616 12.5268C244.052 7.48899 241.676 0.844474 242.011 -5.94507C247.062 -107.253 169.102 -195.044 68.6133 -201.461C65.1774 -201.56 61.7966 -202.351 58.6728 -203.786C55.549 -205.22 52.7461 -207.269 50.4312 -209.81C48.1162 -212.351 46.3368 -215.332 45.1989 -218.576C44.0611 -221.819 43.5881 -225.259 43.8082 -228.689C44.0284 -232.12 44.937 -235.471 46.4802 -238.542C48.0233 -241.614 50.1692 -244.343 52.7899 -246.568C55.4106 -248.792 58.4525 -250.466 61.734 -251.489C65.0156 -252.513 68.4696 -252.865 71.8901 -252.524C200.368 -244.332 299.559 -132.648 293.211 -3.41919Z" fill="#8c8c8c"/>
<path d="M15.4167 13.8437V21.1562M13.25 14.9687V20.0312M11.0833 16.375V18.625M10 16.9375V18.0625M17.5833 16.0937V18.9062M16.5 15.25V19.75M14.3333 13V22M12.1667 16.0937V18.9062M18.6667 15.25V19.75M19.75 14.6875V20.3125M21.9167 16.375V18.625M20.8333 15.5312V19.4687M23 16.9375V18.0625" stroke="#8c8c8c" stroke-miterlimit="10"/>
</g>
</g>
</g>
</g>
<defs>
<clipPath id="clip0_1_3">
<rect width="33" height="33" fill="white"/>
</clipPath>
<clipPath id="clip1_1_3">
<rect width="853.333" height="1706.67" fill="white" transform="translate(-416 -834)"/>
</clipPath>
<clipPath id="clip2_1_3">
<rect width="1024" height="1024" fill="white" transform="translate(-498 -497)"/>
</clipPath>
<clipPath id="clip3_1_3">
<rect width="1024" height="1024" fill="white" transform="translate(-498 -492)"/>
</clipPath>
</defs>
</svg>
